<?xml version="1.0" standalone="no"?>
<!DOCTYPE svg PUBLIC "-//W3C//DTD SVG 20010904//EN"
 "http://www.w3.org/TR/2001/REC-SVG-20010904/DTD/svg10.dtd">
<svg version="1.0" xmlns="http://www.w3.org/2000/svg"
 width="1024.000000pt" height="1024.000000pt" viewBox="0 0 1024.000000 1024.000000"
 preserveAspectRatio="xMidYMid meet">
<metadata>
Created by potrace 1.16, written by Peter Selinger 2001-2019
</metadata>
<g transform="translate(0.000000,1024.000000) scale(0.100000,-0.100000)"
fill="#000000" stroke="none">
<path d="M5085 8548 c-18 -10 -614 -572 -885 -833 -187 -180 -349 -334 -660
-625 -432 -404 -420 -391 -420 -427 0 -48 34 -83 81 -83 36 0 49 9 154 106
l115 106 0 -1070 c0 -589 3 -1078 6 -1087 18 -47 -43 -45 1653 -45 l1590 0 28
24 28 24 5 1075 5 1075 107 -104 c102 -99 121 -111 168 -104 33 4 60 42 60 85
0 41 -2 43 -207 236 -115 107 -257 241 -318 299 l-110 105 -5 432 -5 431 -24
26 -24 26 -217 0 c-281 0 -259 19 -262 -226 l-3 -181 -252 237 c-138 130 -314
296 -391 368 -143 136 -176 155 -217 130z m160 -310 c361 -337 1165 -1097
1258 -1187 l107 -105 0 -1093 0 -1093 -1490 0 -1490 0 0 1089 0 1089 187 179
c415 396 657 626 823 783 96 91 241 229 324 308 82 78 152 142 156 142 3 0 60
-50 125 -112z m1065 -479 l0 -290 -100 93 -100 93 0 198 0 197 100 0 100 0 0
-291z"/>
<path d="M4472 6733 c-39 -15 -40 -36 -37 -678 l3 -619 27 -23 27 -23 635 2
635 3 19 24 c18 22 19 48 19 646 0 614 0 623 -21 649 l-20 26 -637 -1 c-350 0
-643 -3 -650 -6z m568 -368 l0 -215 -220 0 -220 0 0 215 0 215 220 0 220 0 0
-215z m600 0 l0 -215 -215 0 -215 0 0 215 0 215 215 0 215 0 0 -215z m-600
-591 l0 -214 -220 0 -220 0 0 215 0 215 220 -1 220 -1 0 -214z m590 1 l0 -215
-210 0 -210 0 0 214 0 213 210 2 210 1 0 -215z"/>
<path d="M1715 3976 c-76 -18 -140 -53 -198 -106 -97 -89 -141 -204 -140 -365
1 -164 49 -275 161 -375 87 -78 141 -95 297 -95 127 0 132 1 197 33 107 53
191 151 213 250 l7 32 -90 0 -89 0 -30 -49 c-102 -164 -354 -141 -441 40 -83
170 -23 394 123 460 49 23 161 25 209 5 41 -17 113 -80 121 -107 6 -17 16 -19
101 -19 72 0 94 3 94 13 0 8 -14 41 -30 74 -33 67 -105 140 -168 172 -95 49
-230 63 -337 37z"/>
<path d="M3509 3977 c-64 -18 -134 -61 -165 -102 -56 -74 -69 -187 -30 -270
40 -87 101 -125 261 -164 143 -35 183 -50 210 -82 28 -35 32 -67 10 -108 -21
-41 -78 -65 -155 -65 -85 0 -146 28 -180 84 l-25 39 -82 1 -83 0 0 -27 c1 -37
35 -111 68 -147 70 -74 161 -106 304 -106 199 0 309 75 338 231 22 115 -28
219 -130 272 -30 15 -116 42 -189 61 -117 29 -139 38 -163 65 -72 80 -4 171
127 171 74 0 122 -22 154 -72 l24 -38 84 0 c93 0 92 -1 67 72 -22 66 -75 122
-149 159 -56 27 -78 32 -158 35 -56 3 -110 -1 -138 -9z"/>
<path d="M2584 3823 c-32 -87 -110 -299 -175 -470 l-117 -313 98 0 98 0 35 98
35 97 187 0 188 0 32 -95 32 -95 100 -3 101 -3 -103 273 c-56 150 -135 362
-175 471 l-73 197 -102 0 -103 0 -58 -157z m229 -236 c31 -94 57 -175 57 -179
0 -5 -57 -8 -126 -8 -97 0 -125 3 -122 13 9 37 123 347 128 347 3 0 31 -78 63
-173z"/>
<path d="M4249 3510 l-176 -470 98 0 97 0 28 78 c15 42 31 87 36 100 8 22 8
22 194 20 l187 -3 32 -93 c17 -51 34 -95 37 -97 3 -3 48 -4 100 -3 l95 3 -143
385 c-79 212 -158 422 -175 468 l-32 82 -101 0 -101 0 -176 -470z m345 72 c31
-90 56 -168 56 -173 0 -5 -55 -9 -125 -9 -69 0 -125 3 -125 7 0 22 125 352
130 346 4 -4 33 -81 64 -171z"/>
<path d="M5340 3972 c0 -5 22 -65 48 -133 27 -68 106 -276 177 -461 l128 -338
106 0 106 0 168 448 c92 246 170 457 174 470 5 22 4 22 -90 22 -94 0 -95 0
-106 -27 -15 -39 -199 -573 -226 -658 -13 -38 -25 -63 -28 -55 -2 8 -60 178
-128 378 l-124 362 -102 0 c-57 0 -103 -4 -103 -8z"/>
<path d="M6390 3510 l0 -470 295 0 295 0 0 80 0 80 -205 0 -205 0 0 120 0 120
170 0 171 0 -3 78 -3 77 -168 0 -167 0 0 108 0 107 200 0 200 0 0 85 0 85
-290 0 -290 0 0 -470z"/>
<path d="M7160 3511 l0 -471 90 0 90 0 2 166 3 166 73 0 73 0 97 -166 96 -166
98 0 99 0 -12 23 c-6 12 -52 93 -102 180 -71 125 -87 160 -76 167 64 37 89 58
113 93 37 59 49 110 44 199 -6 94 -36 159 -96 205 -73 56 -122 65 -369 70
l-223 5 0 -471z m439 281 c52 -26 75 -63 75 -122 0 -57 -22 -94 -74 -124 -26
-16 -58 -21 -147 -24 l-113 -5 0 147 0 146 113 0 c87 0 120 -4 146 -18z"/>
<path d="M8365 3968 c-10 -30 -317 -857 -330 -890 l-15 -38 99 0 98 0 35 98
34 97 186 3 185 2 35 -97 34 -98 101 -3 101 -3 -117 313 c-65 172 -144 384
-177 471 l-59 157 -103 0 c-73 0 -104 -4 -107 -12z m229 -545 l7 -23 -131 0
c-122 0 -132 1 -125 18 4 9 32 85 61 167 30 83 57 157 60 165 5 12 94 -217
128 -327z"/>
<path d="M1521 2558 c-35 -90 -110 -287 -116 -306 -6 -21 -4 -23 21 -20 22 2
30 11 43 46 l15 43 76 -3 75 -3 15 -42 c11 -34 19 -43 37 -43 13 0 23 4 23 8
0 5 -26 83 -59 173 -58 162 -59 164 -90 167 -25 3 -33 -1 -40 -20z"/>
<path d="M1793 2405 l-3 -175 115 0 115 0 0 25 c0 25 -1 25 -85 25 l-85 0 0
150 0 150 -27 0 -28 0 -2 -175z"/>
<path d="M2129 2557 c-42 -28 -79 -98 -79 -152 1 -54 31 -117 70 -145 43 -30
125 -38 167 -17 28 15 31 15 51 -6 21 -20 23 -20 39 -4 16 16 16 18 -5 37
l-22 21 20 39 c26 51 25 105 -2 160 -32 63 -77 90 -148 90 -43 0 -66 -6 -91
-23z m141 -42 c52 -27 74 -97 50 -161 l-11 -27 -28 27 c-27 26 -28 26 -44 8
-16 -17 -16 -20 8 -42 28 -26 20 -40 -23 -40 -85 0 -140 107 -97 190 30 58 86
75 145 45z"/>
<path d="M2472 2439 l3 -141 39 -35 c37 -34 40 -35 101 -31 111 7 135 47 135
228 l0 120 -30 0 -30 0 0 -125 c0 -120 -1 -127 -25 -150 -30 -31 -73 -32 -109
-4 -26 20 -26 22 -26 150 l0 129 -31 0 -31 0 4 -141z"/>
<path d="M2850 2405 l0 -175 25 0 25 0 0 175 0 175 -25 0 -25 0 0 -175z"/>
<path d="M3000 2405 l0 -175 115 0 115 0 0 25 c0 25 -1 25 -85 25 l-85 0 0
150 0 150 -30 0 -30 0 0 -175z"/>
<path d="M3300 2405 l0 -176 117 3 c117 3 117 3 117 27 0 24 -1 24 -87 22
l-87 -2 0 50 0 51 70 0 70 0 0 29 0 29 -67 0 -68 -1 -3 47 -3 46 85 0 c85 0
86 0 86 25 l0 25 -115 0 -115 0 0 -175z"/>
<path d="M3610 2405 l0 -175 30 0 30 0 0 65 0 65 38 0 c36 0 39 -2 70 -65 29
-58 35 -65 62 -65 16 0 30 3 30 7 0 3 -15 34 -34 69 l-35 62 24 16 c34 22 50
77 35 122 -19 56 -58 74 -162 74 l-88 0 0 -175z"/>
<path d="M4110 2405 l0 -175 66 0 c88 0 139 16 174 57 78 88 54 218 -50 271
-34 17 -61 22 -117 22 l-73 0 0 -175z m180 97 c37 -28 54 -88 38 -137 -16 -48
-50 -73 -110 -81 l-48 -7 0 128 0 128 48 -7 c26 -3 58 -14 72 -24z"/>
<path d="M4480 2415 c0 -91 0 -168 0 -172 0 -5 49 -9 110 -11 l110 -3 0 25 c0
25 -2 25 -82 28 l-83 3 -3 48 -3 47 70 0 71 0 0 31 0 30 -67 -2 -68 -3 0 45 0
44 83 3 c80 3 82 3 82 27 l0 25 -110 0 -110 0 0 -165z"/>
<path d="M4940 2405 l0 -175 30 0 30 0 0 75 0 75 80 0 80 0 0 -75 0 -75 30 0
30 0 0 175 0 175 -30 0 -30 0 0 -75 0 -75 -80 0 -80 0 0 75 0 75 -30 0 -30 0
0 -175z"/>
<path d="M5361 2415 c-34 -91 -61 -171 -61 -176 0 -6 12 -9 27 -7 21 2 29 12
42 46 l15 42 71 0 71 0 15 -42 c13 -34 21 -44 42 -46 15 -2 27 1 27 7 0 5 -28
84 -62 175 l-61 166 -33 0 -32 0 -61 -165z"/>
<path d="M5690 2406 l0 -176 80 0 c126 0 170 27 170 104 0 25 -7 40 -26 55
-25 20 -26 22 -10 39 24 28 20 86 -8 119 -23 26 -30 28 -115 31 l-91 4 0 -176z"/>
<path d="M6030 2405 l0 -175 25 0 25 0 0 175 0 175 -25 0 -25 0 0 -175z"/>
<path d="M6168 2555 c-5 -24 -3 -25 48 -25 l54 0 0 -150 0 -150 30 0 30 0 0
150 0 150 54 0 c51 0 53 1 48 25 l-4 25 -128 0 -128 0 -4 -25z"/>
<path d="M6516 2417 c-33 -89 -61 -168 -64 -174 -3 -9 6 -13 26 -13 27 0 32 5
44 43 l15 42 70 3 71 3 14 -43 c13 -38 19 -43 47 -46 18 -2 32 1 30 6 -2 5
-31 84 -64 175 l-60 167 -35 0 -35 0 -59 -163z"/>
<path d="M6882 2559 c-102 -66 -97 -255 8 -311 71 -37 172 -15 210 47 26 42
25 45 -5 45 -15 0 -35 -11 -48 -26 -15 -17 -36 -27 -64 -31 -39 -5 -46 -2 -78
30 -32 32 -35 40 -35 92 0 52 3 60 35 92 32 32 39 35 78 30 25 -3 48 -14 59
-26 10 -13 28 -21 47 -21 l32 0 -16 29 c-35 69 -152 95 -223 50z"/>
<path d="M7200 2405 l0 -175 30 0 30 0 0 175 0 175 -30 0 -30 0 0 -175z"/>
<path d="M7420 2557 c-52 -34 -75 -82 -75 -153 0 -107 66 -174 173 -174 54 0
100 24 136 73 17 23 21 43 21 101 0 64 -3 77 -28 109 -37 49 -75 67 -140 67
-40 0 -63 -6 -87 -23z m166 -61 c31 -31 34 -40 34 -91 0 -51 -3 -60 -34 -91
-55 -55 -134 -43 -168 26 -46 91 4 190 95 190 31 0 46 -7 73 -34z"/>
<path d="M7770 2405 l0 -175 30 0 30 0 0 127 0 128 85 -128 c77 -115 88 -127
115 -127 l30 0 0 175 0 175 -30 0 -29 0 -3 -122 -3 -121 -80 121 c-75 114 -82
122 -112 122 l-33 0 0 -175z"/>
<path d="M8160 2405 l0 -175 110 0 c103 0 110 1 110 20 0 11 1 23 3 27 1 3
-35 5 -80 4 l-83 -2 0 50 0 51 71 0 70 0 -3 28 c-3 26 -4 27 -71 27 l-67 0 0
48 0 47 80 0 c79 0 80 0 80 25 l0 25 -110 0 -110 0 0 -175z"/>
<path d="M8499 2552 c-25 -22 -31 -36 -31 -67 0 -52 40 -89 113 -104 63 -14
79 -25 79 -57 0 -48 -91 -62 -131 -19 -25 26 -69 34 -69 12 0 -21 29 -56 60
-72 98 -51 225 27 191 117 -13 34 -46 56 -111 73 -59 16 -80 30 -80 56 0 40
87 54 117 19 21 -24 63 -27 63 -4 0 8 -13 29 -29 45 -26 25 -37 29 -85 29 -47
0 -61 -4 -87 -28z"/>
<path d="M4494 1986 c-104 -46 -76 -157 46 -186 89 -20 117 -62 65 -96 -32
-21 -93 -13 -117 16 -9 11 -27 20 -41 20 -57 0 12 -83 79 -96 79 -15 154 35
154 103 0 44 -33 78 -91 93 -73 20 -97 31 -103 47 -9 23 11 51 42 58 31 6 82
-9 82 -25 0 -5 14 -10 30 -10 17 0 30 3 30 8 0 19 -35 55 -66 68 -41 17 -70
17 -110 0z"/>
<path d="M7414 1986 c-40 -18 -64 -52 -64 -91 0 -51 32 -76 137 -104 24 -7 47
-21 53 -31 34 -63 -90 -95 -139 -36 -12 14 -61 23 -61 11 0 -22 31 -60 62 -76
99 -50 211 12 193 108 -7 41 -45 67 -119 83 -27 6 -56 15 -63 22 -20 16 -16
45 9 62 31 22 60 20 92 -5 15 -12 37 -19 52 -17 l26 3 -23 29 c-23 29 -75 56
-106 56 -10 -1 -32 -7 -49 -14z"/>
<path d="M2640 1817 l0 -174 25 5 c23 4 25 8 25 63 l0 59 50 0 c56 0 104 20
120 49 20 39 12 98 -19 133 -28 32 -33 33 -115 37 l-86 3 0 -175z"/>
<path d="M3003 1974 c-128 -333 -123 -319 -100 -325 27 -7 32 -3 47 44 l12 37
75 0 75 0 15 -40 c13 -33 21 -40 43 -40 l27 0 -63 168 c-61 163 -64 167 -93
170 -22 2 -33 -2 -38 -14z"/>
<path d="M3270 1821 l0 -171 30 0 30 0 0 65 0 65 33 0 c30 0 36 -6 70 -65 33
-57 41 -65 67 -65 l29 0 -37 66 -38 66 34 34 c31 31 34 39 29 76 -3 26 -15 51
-31 67 -24 24 -35 26 -121 29 l-95 4 0 -171z"/>
<path d="M3655 1828 c-75 -201 -72 -186 -39 -180 20 4 31 15 42 43 l15 39 72
0 73 0 15 -39 c11 -27 23 -40 41 -43 14 -3 26 -2 26 3 0 4 -28 82 -62 173 -61
166 -61 166 -92 166 -31 0 -31 -1 -91 -162z"/>
<path d="M4130 1820 l0 -170 116 0 c114 0 115 0 112 23 -3 21 -8 22 -90 25
l-88 3 0 49 0 50 70 0 c68 0 70 1 70 25 0 24 -2 25 -70 25 l-70 0 0 45 0 45
85 0 c84 0 85 0 85 25 l0 25 -110 0 -110 0 0 -170z"/>
<path d="M4740 1965 c0 -24 3 -25 55 -25 l55 0 0 -147 0 -148 25 0 25 0 0 148
0 147 55 0 c52 0 55 1 55 25 l0 25 -135 0 -135 0 0 -25z"/>
<path d="M5080 1868 c0 -143 13 -182 70 -210 71 -36 161 -12 192 52 14 28 18
61 18 158 l0 122 -30 0 -30 0 0 -129 c0 -128 0 -130 -26 -150 -35 -28 -77 -26
-111 3 -28 24 -28 26 -31 150 -4 126 -4 126 -28 126 l-24 0 0 -122z"/>
<path d="M5450 1820 l0 -170 82 0 c68 0 88 4 123 24 55 33 79 85 73 161 -9
103 -77 155 -205 155 l-73 0 0 -170z m171 104 c33 -17 59 -66 59 -111 0 -33
-31 -87 -57 -102 -24 -12 -107 -19 -110 -8 -2 4 -3 59 -3 122 l0 115 40 0 c23
0 55 -7 71 -16z"/>
<path d="M5820 1818 l0 -173 25 0 25 0 0 173 0 172 -25 0 -25 0 0 -172z"/>
<path d="M6075 1978 c-3 -7 -31 -83 -64 -168 -57 -151 -58 -155 -37 -161 26
-7 31 -3 46 44 l12 37 73 0 74 0 19 -43 c16 -35 24 -43 43 -42 13 1 23 6 22
11 -1 5 -30 82 -64 172 -60 158 -62 162 -90 162 -17 0 -32 -6 -34 -12z"/>
<path d="M6330 1822 c0 -93 2 -171 5 -174 3 -3 16 -3 30 0 24 4 24 6 27 122
l3 118 80 -119 c74 -110 82 -118 113 -119 l32 0 0 170 0 170 -31 0 -31 0 4
-125 c2 -69 1 -125 -2 -124 -3 0 -41 56 -85 124 -75 118 -82 125 -112 125
l-33 0 0 -168z"/>
<path d="M6694 1968 c3 -20 10 -23 60 -26 l57 -3 -2 -147 -1 -146 23 0 c24 0
24 0 27 147 l3 147 54 0 c52 0 55 1 55 25 l0 25 -140 0 c-139 0 -140 0 -136
-22z"/>
<path d="M7040 1820 l0 -170 115 0 115 0 0 25 c0 25 -1 25 -90 25 l-90 0 0 50
0 50 74 0 c73 0 73 0 68 25 -4 24 -8 25 -73 25 l-69 0 0 45 0 45 85 0 c84 0
85 0 85 25 l0 25 -110 0 -110 0 0 -170z"/>
</g>
</svg>
